<?xml version="1.0" standalone="no"?>
<!DOCTYPE svg PUBLIC "-//W3C//DTD SVG 20010904//EN"
 "http://www.w3.org/TR/2001/REC-SVG-20010904/DTD/svg10.dtd">
<svg version="1.0" xmlns="http://www.w3.org/2000/svg"
 width="8001.000000pt" height="3751.000000pt" viewBox="0 0 8001.000000 3751.000000"
 preserveAspectRatio="xMidYMid meet">

<g transform="translate(0.000000,3751.000000) scale(0.100000,-0.100000)"
fill="#000000" stroke="none">
<path d="M58957 22478 c10 -651 10 -3603 0 -4265 l-8 -513 793 0 793 0 0 2640
0 2640 -793 0 -793 0 8 -502z"/>
<path d="M50846 22128 c-2 -7 -12 -44 -21 -82 -55 -233 -243 -464 -472 -579
-77 -39 -214 -76 -309 -84 l-84 -6 0 -593 0 -594 31 0 c17 0 133 7 258 15 124
8 259 16 299 17 l72 4 0 -654 c0 -391 4 -692 11 -750 30 -279 104 -505 227
-692 181 -277 444 -419 892 -482 119 -16 688 -16 875 1 114 10 340 40 431 57
l31 6 -1 416 c-1 230 3 468 7 531 l8 114 -28 -7 c-15 -4 -111 -10 -213 -13
-215 -6 -328 11 -446 68 -181 85 -291 278 -325 564 -11 94 -2 853 10 858 8 4
280 -8 626 -28 149 -8 323 -18 388 -22 l117 -6 0 596 0 597 -650 2 -650 3 109
82 c188 143 403 356 560 557 44 57 81 107 81 110 0 3 -412 6 -915 6 -724 0
-916 -3 -919 -12z"/>
<path d="M36940 21453 c-475 -28 -914 -153 -1205 -343 -366 -240 -636 -646
-724 -1090 -32 -166 -41 -261 -41 -460 0 -365 54 -625 185 -898 248 -516 678
-831 1316 -961 445 -91 1078 -89 1560 5 625 121 1115 439 1342 871 20 39 37
75 37 81 0 5 -42 24 -92 42 -384 135 -850 321 -1018 405 -38 19 -75 35 -82 35
-7 -1 -31 -24 -53 -52 -120 -152 -367 -288 -627 -345 -127 -28 -422 -25 -541
5 -238 60 -408 194 -512 407 -25 50 -53 123 -64 163 l-20 72 1523 0 1524 0 6
31 c12 59 6 393 -9 496 -81 570 -416 1013 -970 1284 -366 179 -787 262 -1294
257 -103 -1 -211 -3 -241 -5z m630 -1043 c125 -36 205 -84 305 -185 70 -69
101 -109 133 -172 23 -44 42 -84 42 -87 0 -3 -360 -6 -801 -6 l-800 0 37 73
c54 103 191 238 300 294 85 44 218 87 319 103 33 5 134 7 225 5 132 -2 180 -7
240 -25z"/>
<path d="M42755 21445 c-186 -30 -393 -117 -535 -224 -91 -69 -216 -201 -279
-296 -69 -105 -150 -273 -197 -409 -21 -61 -39 -105 -41 -99 -2 6 -46 226 -98
488 -52 263 -96 479 -99 482 -2 2 -155 -1 -340 -8 -259 -9 -413 -9 -672 0
-185 7 -339 10 -342 7 -3 -4 0 -124 6 -269 31 -679 35 -860 36 -1547 1 -697
-7 -1025 -37 -1638 l-12 -232 809 0 809 0 -6 43 c-3 23 -11 240 -18 482 -17
585 -2 1236 31 1389 59 274 202 477 384 543 165 59 348 20 477 -104 110 -105
169 -237 188 -418 11 -107 -1 -1050 -19 -1518 -5 -139 -10 -289 -10 -334 l0
-83 755 0 755 0 0 43 c-1 23 -5 128 -11 232 -6 105 -14 678 -19 1275 -7 1049
-8 1088 -29 1184 -113 536 -453 890 -958 996 -132 28 -401 35 -528 15z"/>
<path d="M46960 21453 c-130 -8 -346 -36 -485 -64 -513 -102 -889 -329 -1150
-694 -233 -326 -335 -669 -335 -1132 0 -376 57 -647 192 -917 260 -520 687
-824 1335 -950 444 -87 1060 -83 1533 9 568 111 1025 383 1275 760 52 79 105
176 105 193 0 5 -48 26 -107 47 -352 123 -730 272 -959 379 -119 55 -144 64
-144 48 0 -15 -130 -142 -192 -188 -117 -86 -295 -162 -468 -200 -130 -29
-422 -26 -545 4 -294 73 -490 269 -575 573 l-19 69 1523 0 1523 0 7 38 c10 60
7 360 -5 452 -42 344 -172 636 -399 898 -281 325 -772 566 -1315 646 -211 31
-549 44 -795 29z m630 -1043 c126 -36 205 -84 305 -185 84 -83 132 -154 164
-238 l11 -27 -801 0 -800 0 37 73 c54 103 191 238 300 294 85 44 218 87 319
103 33 5 134 7 225 5 132 -2 180 -7 240 -25z"/>
<path d="M55760 21454 c-317 -27 -449 -48 -645 -99 -547 -143 -931 -450 -1160
-927 -67 -139 -108 -265 -140 -422 -81 -404 -45 -873 94 -1226 88 -225 207
-405 386 -586 226 -227 494 -373 855 -464 528 -133 1287 -129 1840 10 542 136
980 444 1184 831 27 50 46 92 44 94 -2 2 -73 29 -158 58 -333 118 -621 231
-871 344 l-167 75 -76 -80 c-126 -132 -263 -216 -450 -277 -157 -51 -222 -60
-416 -60 -190 0 -275 13 -400 62 -231 91 -405 306 -464 576 l-6 27 1523 0
1524 0 6 68 c16 165 4 403 -29 567 -111 555 -502 999 -1091 1240 -201 81 -420
136 -685 171 -117 15 -590 27 -698 18z m542 -1028 c153 -29 254 -79 364 -179
67 -61 140 -163 173 -240 l20 -47 -799 0 c-440 0 -800 2 -800 5 0 16 54 108
95 163 111 148 305 258 515 292 41 6 82 13 90 15 47 9 278 3 342 -9z"/>
<path d="M37121 15964 c-276 -74 -441 -319 -403 -600 37 -276 270 -464 577
-464 202 0 373 82 452 217 30 52 41 40 -105 119 l-104 56 -16 -23 c-51 -75
-113 -110 -203 -117 -167 -12 -286 94 -297 263 -6 98 16 173 69 230 109 118
280 125 390 15 27 -27 49 -54 49 -60 0 -6 54 17 120 52 66 35 120 66 120 70 0
4 -14 31 -31 59 -54 87 -171 163 -287 188 -74 15 -266 13 -331 -5z"/>
<path d="M38456 15965 c-239 -66 -396 -274 -396 -525 0 -90 17 -159 60 -246
98 -199 310 -305 586 -291 129 6 227 35 310 92 96 66 96 60 1 160 l-83 89 -40
-32 c-61 -49 -116 -65 -224 -66 -76 0 -104 4 -141 20 -59 28 -115 78 -140 125
-37 74 -64 69 381 69 l400 0 0 83 c-1 261 -148 460 -387 522 -71 19 -259 18
-327 0z m233 -216 c90 -19 175 -101 188 -183 l6 -36 -262 0 -261 0 6 28 c19
77 90 160 155 180 77 24 101 26 168 11z"/>
<path d="M41416 15965 c-191 -53 -337 -203 -382 -391 -22 -93 -14 -236 17
-319 89 -239 312 -367 614 -352 156 7 259 44 358 130 l39 32 -84 90 -84 89
-40 -32 c-61 -49 -116 -65 -224 -66 -76 0 -104 4 -141 20 -59 28 -115 78 -140
125 -37 74 -64 69 381 69 l400 0 0 78 c-1 265 -147 465 -387 527 -71 19 -259
18 -327 0z m289 -236 c70 -33 135 -119 135 -179 0 -20 -5 -20 -260 -20 -201 0
-260 3 -260 13 0 30 50 115 87 148 36 33 65 47 128 63 37 9 125 -4 170 -25z"/>
<path d="M45921 15970 c-93 -20 -250 -84 -265 -109 -4 -6 76 -176 99 -208 1
-2 26 10 56 26 76 41 160 63 243 64 148 2 229 -55 251 -175 l7 -38 -183 0
c-300 0 -410 -39 -487 -169 -24 -41 -27 -56 -27 -141 0 -87 3 -100 30 -149 56
-101 166 -159 316 -168 50 -3 114 0 152 7 73 13 159 58 183 95 25 38 34 30 34
-30 l0 -55 141 0 140 0 -3 368 c-3 353 -4 369 -26 423 -50 124 -123 195 -247
241 -50 18 -85 22 -215 24 -85 2 -175 -1 -199 -6z m389 -665 c0 -31 -7 -69
-14 -84 -38 -72 -152 -129 -242 -118 -103 11 -168 81 -145 156 23 78 80 99
269 100 l132 1 0 -55z"/>
<path d="M51280 15966 c-76 -17 -126 -34 -185 -64 -81 -40 -80 -33 -23 -145
27 -56 51 -103 52 -104 2 -2 27 10 57 26 80 43 163 64 254 64 128 0 209 -49
235 -141 21 -76 31 -72 -172 -72 -303 0 -417 -41 -486 -174 -36 -71 -38 -198
-4 -267 65 -133 207 -198 411 -186 78 5 104 11 157 37 34 17 74 44 88 60 13
17 27 30 30 30 3 0 6 -25 6 -55 l0 -55 140 0 140 0 0 339 c0 186 -5 362 -10
391 -31 163 -141 275 -312 315 -77 18 -299 18 -378 1z m400 -661 c0 -62 -15
-97 -57 -136 -61 -58 -148 -79 -232 -59 -69 16 -111 63 -111 125 0 93 66 123
273 124 l127 1 0 -55z"/>
<path d="M52778 15964 c-80 -19 -184 -74 -245 -128 -199 -179 -225 -499 -57
-727 121 -165 403 -249 637 -190 86 23 135 45 192 91 44 35 115 125 115 145 0
8 -52 42 -116 76 -100 53 -118 59 -126 46 -23 -41 -64 -78 -113 -103 -48 -23
-64 -26 -127 -22 -84 4 -130 24 -184 76 -57 55 -78 112 -78 212 -1 68 4 95 23
137 56 125 192 187 327 148 48 -13 69 -27 114 -74 l54 -57 111 59 c60 33 112
61 115 64 2 2 -6 24 -20 49 -45 87 -159 167 -281 199 -69 19 -264 18 -341 -1z"/>
<path d="M55321 15964 c-181 -48 -329 -198 -376 -381 -18 -68 -19 -191 -4
-265 31 -146 139 -283 279 -352 186 -91 472 -87 635 10 42 25 105 80 105 92 0
4 -35 46 -79 92 l-79 85 -23 -22 c-13 -12 -51 -34 -84 -50 -53 -24 -72 -28
-155 -28 -77 1 -105 5 -147 24 -76 34 -153 123 -153 177 0 12 62 14 398 16
l397 3 3 66 c11 253 -146 472 -383 534 -75 19 -261 19 -334 -1z m302 -242 c53
-29 88 -67 112 -125 29 -71 44 -67 -245 -67 -143 0 -260 4 -260 9 0 53 72 155
132 187 78 41 182 39 261 -4z"/>
<path d="M56943 15966 c-53 -17 -122 -57 -147 -85 -29 -32 -36 -26 -36 34 l0
55 -140 0 -140 0 0 -720 0 -720 150 0 150 0 0 245 0 245 43 -33 c24 -18 68
-44 98 -57 48 -22 67 -25 179 -24 102 1 136 5 184 22 165 61 290 203 325 370
16 76 14 238 -4 307 -39 148 -132 260 -271 327 l-88 43 -131 2 c-90 2 -143 -1
-172 -11z m212 -250 c97 -41 158 -143 159 -266 1 -128 -51 -227 -146 -276 -49
-25 -155 -30 -216 -10 -54 18 -133 92 -153 143 -53 140 -17 300 86 378 69 53
185 66 270 31z"/>
<path d="M58363 15966 c-85 -21 -180 -73 -249 -138 -219 -205 -213 -588 11
-786 172 -151 471 -186 692 -81 134 64 252 213 282 357 62 298 -105 571 -395
647 -71 18 -266 19 -341 1z m292 -257 c108 -51 166 -181 144 -323 -13 -77 -38
-125 -93 -173 -112 -99 -301 -79 -387 39 -86 120 -78 294 19 398 82 89 204
112 317 59z"/>
<path d="M35380 15445 l0 -525 340 0 c214 0 358 4 392 11 157 34 241 116 254
248 13 119 -36 215 -134 265 l-46 23 29 16 c93 48 142 166 115 279 -25 101
-127 172 -282 198 -35 5 -199 10 -365 10 l-303 0 0 -525z m561 315 c70 -13
109 -52 109 -110 0 -29 -7 -48 -27 -70 -36 -39 -103 -52 -255 -48 l-113 3 -3
104 c-1 58 0 111 2 118 7 16 205 18 287 3z m89 -425 c50 -30 69 -85 47 -138
-13 -29 -27 -43 -61 -58 -40 -17 -63 -19 -203 -17 l-158 3 -3 104 c-1 58 0
111 3 119 4 11 36 13 173 10 147 -3 171 -6 202 -23z"/>
<path d="M39706 15858 c-3 -62 -8 -180 -12 -263 -10 -251 -27 -336 -78 -392
-27 -30 -41 -36 -83 -40 l-50 -5 -7 -67 c-3 -36 -6 -92 -6 -123 l0 -57 48 -8
c69 -12 162 -9 206 6 92 32 168 145 200 301 9 41 21 145 27 230 6 85 13 183
15 218 l6 62 169 0 169 0 0 -400 0 -400 150 0 150 0 0 525 0 525 -449 0 -449
0 -6 -112z"/>
<path d="M42570 15445 l0 -525 150 0 150 0 0 195 0 195 230 0 230 0 0 -195 0
-195 155 0 155 0 0 525 0 525 -155 0 -155 0 0 -205 0 -205 -230 0 -230 0 0
205 0 205 -150 0 -150 0 0 -525z"/>
<path d="M44130 15445 l0 -525 150 0 150 0 0 195 0 195 233 -2 232 -3 3 -192
2 -193 150 0 150 0 0 525 0 525 -150 0 -150 0 0 -205 0 -205 -235 0 -235 0 0
205 0 205 -150 0 -150 0 0 -525z"/>
<path d="M47370 15959 c-174 -25 -308 -125 -346 -256 -24 -83 -16 -212 18
-279 30 -57 87 -113 148 -144 26 -13 38 -25 34 -32 -4 -7 -53 -77 -109 -158
-56 -80 -105 -151 -109 -157 -6 -10 28 -13 153 -13 l161 0 100 150 101 151
112 -3 112 -3 3 -147 3 -148 129 0 130 0 0 525 0 525 -292 -1 c-161 -1 -318
-5 -348 -10z m378 -386 l-3 -148 -140 -3 c-160 -3 -210 7 -251 49 -23 24 -29
40 -32 92 -4 57 -2 66 24 96 45 54 71 60 247 61 l158 0 -3 -147z"/>
<path d="M49270 15445 l0 -525 135 0 135 0 2 311 3 311 150 -261 150 -261 70
3 69 2 156 260 155 260 3 -312 2 -313 135 0 135 0 0 525 0 525 -144 0 -144 0
-178 -305 c-133 -226 -182 -301 -189 -291 -5 7 -82 144 -170 304 l-160 292
-157 0 -158 0 0 -525z"/>
<path d="M53680 15845 l0 -125 178 -2 177 -3 3 -397 2 -398 150 0 150 0 0 400
0 400 175 0 175 0 0 125 0 125 -505 0 -505 0 0 -125z"/>
<path d="M59520 15444 l0 -525 373 3 c360 3 374 4 428 26 87 35 133 73 164
136 24 50 27 64 24 145 -4 80 -7 94 -34 133 -17 23 -54 57 -83 75 l-53 31 45
31 c31 21 53 48 71 86 24 48 27 64 23 129 -3 63 -8 81 -34 118 -38 55 -150
113 -244 128 -36 5 -203 10 -372 10 l-308 0 0 -526z m612 303 c63 -27 85 -95
49 -153 -29 -48 -74 -59 -236 -59 l-140 0 -3 104 c-1 58 0 111 3 119 8 21 274
12 327 -11z m3 -397 c87 -20 124 -114 69 -179 -35 -43 -77 -51 -251 -51 l-153
0 0 120 0 120 148 0 c81 0 165 -5 187 -10z"/>
</g>
</svg>
